<svg xmlns="http://www.w3.org/2000/svg" viewBox="0 0 200 340" width="200" height="340">
  <!-- Placeholder front body map. Each muscle is a shape with a stable id so
       the app can recolor it by training/recovery score. Swap this file for a
       real anatomical SVG later without changing app code, as long as the ids
       below are preserved. -->
  <g fill="#303030" stroke="#555555" stroke-width="1.2">
    <ellipse id="head" cx="100" cy="26" rx="17" ry="21"/>
    <rect id="neck" x="92" y="44" width="16" height="12" rx="4"/>
    <ellipse id="shoulder_left" cx="64" cy="70" rx="16" ry="13"/>
    <ellipse id="shoulder_right" cx="136" cy="70" rx="16" ry="13"/>
    <rect id="chest_left" x="78" y="62" width="20" height="30" rx="6"/>
    <rect id="chest_right" x="102" y="62" width="20" height="30" rx="6"/>
    <ellipse id="biceps_left" cx="54" cy="108" rx="10" ry="20"/>
    <ellipse id="biceps_right" cx="146" cy="108" rx="10" ry="20"/>
    <ellipse id="forearm_left" cx="46" cy="150" rx="9" ry="22"/>
    <ellipse id="forearm_right" cx="154" cy="150" rx="9" ry="22"/>
    <rect id="obliques_left" x="74" y="98" width="11" height="40" rx="4"/>
    <rect id="obliques_right" x="115" y="98" width="11" height="40" rx="4"/>
    <rect id="abs" x="86" y="96" width="28" height="46" rx="6"/>
    <rect id="quads_left" x="80" y="156" width="18" height="64" rx="8"/>
    <rect id="quads_right" x="102" y="156" width="18" height="64" rx="8"/>
    <rect id="calves_left" x="82" y="238" width="15" height="56" rx="7"/>
    <rect id="calves_right" x="103" y="238" width="15" height="56" rx="7"/>
  </g>
</svg>
